<svg width="272" height="336" viewBox="0 0 272 336" fill="none" xmlns="http://www.w3.org/2000/svg">
<circle cx="12.5" cy="15.5" r="7.5" fill="black"/>
<line x1="16" y1="15" x2="248" y2="15" stroke="black" stroke-width="4"/>
<circle cx="12.5" cy="328.5" r="7.5" fill="black"/>
<line x1="16" y1="328" x2="248" y2="328" stroke="black" stroke-width="4"/>
<line x1="246" y1="15" x2="246" y2="330.014" stroke="black" stroke-width="4"/>
<rect x="226" y="99" width="44" height="148" fill="white" stroke="black" stroke-width="4"/>
<path d="M10.9393 310.061C11.5251 310.646 12.4749 310.646 13.0607 310.061L22.6066 300.515C23.1924 299.929 23.1924 298.979 22.6066 298.393C22.0208 297.808 21.0711 297.808 20.4853 298.393L12 306.879L3.51472 298.393C2.92893 297.808 1.97918 297.808 1.3934 298.393C0.807612 298.979 0.807612 299.929 1.3934 300.515L10.9393 310.061ZM10.5 36L10.5 309H13.5L13.5 36H10.5Z" fill="#0400CE"/>
<path d="M172.421 16.4142C173.203 15.6332 173.203 14.3668 172.421 13.5858L159.694 0.857864C158.912 0.0768158 157.646 0.0768158 156.865 0.857864C156.084 1.63891 156.084 2.90524 156.865 3.68629L168.179 15L156.865 26.3137C156.084 27.0948 156.084 28.3611 156.865 29.1421C157.646 29.9232 158.912 29.9232 159.694 29.1421L172.421 16.4142ZM102 17H171.007V13H102V17Z" fill="#E30000"/>
</svg>
